<?xml version="1.0" encoding="utf-8"?>
<!-- Generator: Adobe Illustrator 16.0.4, SVG Export Plug-In . SVG Version: 6.00 Build 0)  -->
<!DOCTYPE svg PUBLIC "-//W3C//DTD SVG 1.0//EN" "http://www.w3.org/TR/2001/REC-SVG-20010904/DTD/svg10.dtd">
<svg version="1.0" id="Layer_1" xmlns="http://www.w3.org/2000/svg" xmlns:xlink="http://www.w3.org/1999/xlink" x="0px" y="0px"
	 width="292px" height="56px" viewBox="0 0 292 56" enable-background="new 0 0 292 56" xml:space="preserve">
<g id="byqjLw.tif">
	<g>
		<path fill-rule="evenodd" clip-rule="evenodd" fill="#ED1C24" d="M7.379,37.779c0-0.222,0-0.39,0-0.557
			c0-9.247-0.003-18.495,0.009-27.742c0-0.477,0.044-0.99,0.224-1.421c0.497-1.192,1.439-1.807,2.742-1.812
			c2.207-0.009,4.414-0.003,6.62-0.003c2.851,0,5.701-0.002,8.551,0.001c1.888,0.002,3.104,1.213,3.107,3.103
			c0.005,2.706,0.001,5.412,0.001,8.117c0,0.154,0,0.308,0,0.51c0.361,0,0.672-0.002,0.983,0c2.836,0.02,4.887,2.075,4.891,4.912
			c0.004,3.337,0,6.673,0.002,10.01c0,0.688,0.393,1.152,0.994,1.195c0.61,0.044,1.101-0.348,1.193-0.957
			c0.018-0.116,0.014-0.236,0.014-0.354c0-5.281,0-10.562,0-15.842c0-0.129,0-0.257,0-0.435c-0.66,0-1.285,0-1.911,0
			c-0.836,0-1.37-0.312-1.636-0.979c-0.287-0.72-0.088-1.327,0.441-1.864c0.579-0.588,1.143-1.192,1.732-1.81
			c-0.099-0.109-0.181-0.207-0.27-0.296c-0.731-0.736-1.47-1.466-2.195-2.208c-0.747-0.764-0.76-1.854-0.045-2.575
			c0.723-0.729,1.834-0.712,2.605,0.051c1.279,1.266,2.554,2.536,3.828,3.807c0.732,0.731,1.104,1.613,1.104,2.651
			c-0.001,6.568,0.008,13.136-0.005,19.703c-0.005,2.562-1.836,4.517-4.417,4.775c-2.308,0.23-4.512-1.446-5.006-3.829
			c-0.08-0.383-0.1-0.783-0.101-1.175c-0.008-3.258-0.004-6.515-0.004-9.772c0-0.969-0.388-1.35-1.365-1.351
			c-0.26,0-0.521,0-0.806,0c0,5.386,0,10.738,0,16.12c0.142,0.009,0.268,0.019,0.395,0.023c1.015,0.037,1.778,0.825,1.774,1.834
			c-0.004,1.006-0.772,1.808-1.792,1.812c-2.759,0.013-5.517,0.006-8.275,0.006c-4.545,0-9.089,0.002-13.634-0.002
			c-1.178,0-1.977-0.787-1.945-1.897c0.026-0.948,0.781-1.711,1.735-1.751C7.048,37.774,7.179,37.779,7.379,37.779z M18.006,9.898
			c-1.72,0-3.439-0.002-5.159,0c-1.155,0.002-1.81,0.654-1.811,1.804c-0.001,2.468-0.001,4.937,0,7.404
			c0.001,1.149,0.656,1.803,1.812,1.803c3.439,0.002,6.879,0.002,10.318,0c1.154,0,1.809-0.654,1.81-1.804
			c0.001-2.468,0.001-4.937,0-7.404c-0.001-1.149-0.656-1.802-1.81-1.803C21.445,9.896,19.726,9.897,18.006,9.898z"/>
	</g>
</g>
<g>
	<path d="M60.163,28.588v11.713H57.84V12.111h9.719c2.956,0,5.244,0.755,6.863,2.266c1.62,1.51,2.43,3.497,2.43,5.963
		c0,2.504-0.811,4.505-2.43,6.002s-3.908,2.246-6.863,2.246H60.163z M60.163,26.612h7.396c2.323,0,4.066-0.59,5.228-1.771
		c1.162-1.181,1.742-2.668,1.742-4.463c0-1.807-0.581-3.307-1.742-4.501c-1.162-1.193-2.904-1.791-5.228-1.791h-7.396V26.612z"/>
	<path d="M80.202,29.517c0-3.085,0.845-5.614,2.537-7.589c1.69-1.976,3.93-2.963,6.718-2.963c2.801,0,5.047,0.987,6.738,2.963
		c1.691,1.975,2.536,4.504,2.536,7.589v0.639c0,3.098-0.842,5.632-2.526,7.6c-1.685,1.969-3.92,2.952-6.708,2.952
		c-2.814,0-5.066-0.983-6.757-2.952c-1.691-1.968-2.537-4.502-2.537-7.6V29.517z M82.525,30.155c0,2.427,0.613,4.467,1.839,6.118
		c1.226,1.652,2.937,2.479,5.131,2.479c2.155,0,3.85-0.826,5.082-2.479c1.232-1.651,1.849-3.691,1.849-6.118v-0.639
		c0-2.388-0.62-4.414-1.859-6.079c-1.239-1.665-2.943-2.498-5.111-2.498c-2.168,0-3.866,0.833-5.092,2.498s-1.839,3.691-1.839,6.079
		V30.155z"/>
	<path d="M116.116,34.938c0-0.98-0.404-1.836-1.21-2.565c-0.807-0.729-2.262-1.326-4.366-1.79c-2.478-0.517-4.321-1.224-5.527-2.12
		c-1.207-0.897-1.81-2.152-1.81-3.766c0-1.601,0.674-2.956,2.023-4.066c1.349-1.109,3.133-1.665,5.354-1.665
		c2.336,0,4.201,0.591,5.595,1.771c1.394,1.182,2.059,2.637,1.994,4.366l-0.039,0.116h-2.149c0-1.148-0.494-2.149-1.481-3.001
		s-2.294-1.278-3.92-1.278c-1.678,0-2.943,0.368-3.795,1.104c-0.852,0.736-1.278,1.595-1.278,2.575c0,0.956,0.365,1.746,1.094,2.372
		s2.185,1.178,4.366,1.655c2.452,0.542,4.308,1.297,5.566,2.266c1.259,0.968,1.888,2.271,1.888,3.91c0,1.743-0.707,3.159-2.12,4.25
		c-1.414,1.091-3.282,1.636-5.605,1.636c-2.542,0-4.54-0.606-5.992-1.819c-1.452-1.213-2.139-2.659-2.062-4.337l0.039-0.116h2.13
		c0.09,1.51,0.707,2.607,1.849,3.291c1.143,0.685,2.488,1.026,4.037,1.026c1.678,0,3.001-0.374,3.969-1.123
		C115.632,36.881,116.116,35.983,116.116,34.938z"/>
	<path d="M127.384,13.989v5.363h4.608v1.897h-4.608v13.649c0,1.368,0.248,2.339,0.745,2.913c0.497,0.575,1.158,0.862,1.984,0.862
		c0.284,0,0.559-0.017,0.823-0.049c0.264-0.032,0.577-0.087,0.939-0.164l0.348,1.723c-0.31,0.155-0.694,0.281-1.152,0.378
		s-0.913,0.145-1.365,0.145c-1.472,0-2.617-0.464-3.437-1.394c-0.82-0.93-1.229-2.4-1.229-4.414V21.25h-3.621v-1.897h3.621v-5.363
		H127.384z"/>
	<path d="M135.225,29.517c0-3.085,0.845-5.614,2.537-7.589c1.69-1.976,3.93-2.963,6.718-2.963c2.801,0,5.047,0.987,6.738,2.963
		c1.691,1.975,2.536,4.504,2.536,7.589v0.639c0,3.098-0.842,5.632-2.526,7.6c-1.685,1.969-3.92,2.952-6.708,2.952
		c-2.814,0-5.066-0.983-6.757-2.952c-1.691-1.968-2.537-4.502-2.537-7.6V29.517z M137.548,30.155c0,2.427,0.613,4.467,1.839,6.118
		c1.226,1.652,2.937,2.479,5.131,2.479c2.155,0,3.85-0.826,5.082-2.479c1.232-1.651,1.849-3.691,1.849-6.118v-0.639
		c0-2.388-0.62-4.414-1.859-6.079c-1.239-1.665-2.943-2.498-5.111-2.498c-2.168,0-3.866,0.833-5.092,2.498s-1.839,3.691-1.839,6.079
		V30.155z"/>
	<path d="M184.673,33.447c0-1.445-0.575-2.64-1.723-3.582c-1.149-0.942-3.098-1.826-5.847-2.652
		c-3.007-0.826-5.295-1.855-6.863-3.088s-2.353-2.907-2.353-5.024c0-2.155,0.877-3.927,2.633-5.314
		c1.755-1.388,3.995-2.081,6.718-2.081c2.865,0,5.169,0.784,6.912,2.352c1.743,1.568,2.588,3.56,2.536,5.974l-0.039,0.116h-2.168
		c0-1.859-0.674-3.401-2.023-4.628c-1.349-1.226-3.088-1.839-5.218-1.839c-2.195,0-3.915,0.52-5.16,1.559
		c-1.246,1.039-1.869,2.313-1.869,3.823c0,1.433,0.564,2.611,1.694,3.534c1.129,0.923,3.12,1.784,5.973,2.584
		c2.969,0.865,5.234,1.93,6.796,3.194c1.562,1.266,2.342,2.943,2.342,5.034c0,2.194-0.913,3.959-2.739,5.295
		c-1.827,1.336-4.127,2.004-6.902,2.004c-2.775,0-5.195-0.706-7.26-2.12c-2.065-1.413-3.065-3.475-3.001-6.186l0.039-0.116h2.149
		c0,2.182,0.819,3.805,2.458,4.869c1.639,1.065,3.511,1.598,5.615,1.598c2.156,0,3.911-0.494,5.266-1.481
		C183.995,36.283,184.673,35.009,184.673,33.447z"/>
	<path d="M200.123,40.707c-2.71,0-4.911-0.958-6.602-2.875c-1.691-1.916-2.536-4.378-2.536-7.386v-1.065
		c0-3.02,0.855-5.511,2.565-7.473c1.71-1.962,3.83-2.943,6.36-2.943c2.543,0,4.508,0.816,5.896,2.449
		c1.387,1.633,2.082,3.831,2.082,6.593v1.801h-14.579v0.639c0,2.388,0.604,4.369,1.811,5.943c1.207,1.575,2.875,2.362,5.004,2.362
		c1.278,0,2.453-0.21,3.524-0.629c1.071-0.42,1.962-0.984,2.672-1.694l0.987,1.588c-0.736,0.774-1.701,1.416-2.895,1.926
		S201.788,40.707,200.123,40.707z M199.91,20.939c-1.781,0-3.246,0.64-4.395,1.917c-1.149,1.278-1.82,2.897-2.014,4.859l0.058,0.116
		h12.003v-0.483c0-1.859-0.487-3.392-1.461-4.599C203.127,21.543,201.73,20.939,199.91,20.939z"/>
	<path d="M211.739,30.001c0-3.343,0.707-6.019,2.12-8.025c1.413-2.007,3.385-3.011,5.915-3.011c1.484,0,2.775,0.319,3.872,0.959
		c1.097,0.639,2,1.546,2.71,2.72l0.33-3.291h1.878v21.064c0,2.672-0.736,4.73-2.208,6.176c-1.471,1.445-3.556,2.169-6.253,2.169
		c-1.007,0-2.081-0.123-3.224-0.368c-1.142-0.245-2.139-0.581-2.991-1.007l0.445-1.955c0.839,0.413,1.733,0.726,2.682,0.938
		s1.965,0.319,3.049,0.319c2.065,0,3.607-0.529,4.627-1.587c1.02-1.059,1.53-2.621,1.53-4.686v-2.962
		c-0.71,1.045-1.61,1.849-2.701,2.41c-1.091,0.562-2.353,0.842-3.785,0.842c-2.504,0-4.463-0.936-5.876-2.807
		c-1.414-1.872-2.12-4.369-2.12-7.493V30.001z M214.062,30.407c0,2.53,0.51,4.544,1.529,6.041s2.549,2.245,4.589,2.245
		c1.471,0,2.707-0.332,3.708-0.997c1-0.664,1.778-1.577,2.333-2.739v-9.99c-0.529-1.174-1.281-2.133-2.255-2.875
		c-0.975-0.742-2.224-1.113-3.747-1.113c-2.04,0-3.575,0.839-4.608,2.517c-1.033,1.679-1.549,3.847-1.549,6.506V30.407z"/>
	<path d="M248.351,36.894c-0.671,1.227-1.572,2.168-2.701,2.826c-1.13,0.658-2.469,0.987-4.018,0.987
		c-2.207,0-3.937-0.748-5.189-2.245c-1.252-1.498-1.878-3.821-1.878-6.971V19.353h2.323V31.53c0,2.556,0.436,4.389,1.307,5.498
		c0.871,1.11,2.107,1.665,3.708,1.665c1.743,0,3.133-0.39,4.172-1.171c1.039-0.78,1.771-1.849,2.197-3.204V19.353h2.323v20.948
		h-2.052L248.351,36.894z"/>
	<path d="M266.279,21.347l-1.646-0.116c-1.458,0-2.656,0.41-3.591,1.229c-0.936,0.819-1.604,1.945-2.004,3.378v14.463h-2.323V19.353
		h2.033l0.291,3.484v0.232c0.606-1.29,1.42-2.297,2.439-3.021c1.02-0.723,2.233-1.084,3.64-1.084c0.284,0,0.555,0.022,0.813,0.068
		c0.258,0.045,0.471,0.094,0.639,0.145L266.279,21.347z"/>
	<path d="M268.563,29.517c0-3.085,0.845-5.614,2.537-7.589c1.69-1.976,3.93-2.963,6.718-2.963c2.801,0,5.047,0.987,6.738,2.963
		c1.691,1.975,2.536,4.504,2.536,7.589v0.639c0,3.098-0.842,5.632-2.526,7.6c-1.685,1.969-3.92,2.952-6.708,2.952
		c-2.814,0-5.066-0.983-6.757-2.952c-1.691-1.968-2.537-4.502-2.537-7.6V29.517z M270.886,30.155c0,2.427,0.613,4.467,1.839,6.118
		c1.226,1.652,2.937,2.479,5.131,2.479c2.155,0,3.85-0.826,5.082-2.479c1.232-1.651,1.849-3.691,1.849-6.118v-0.639
		c0-2.388-0.62-4.414-1.859-6.079c-1.239-1.665-2.943-2.498-5.111-2.498c-2.168,0-3.866,0.833-5.092,2.498s-1.839,3.691-1.839,6.079
		V30.155z"/>
</g>
</svg>
