<?xml version="1.0" encoding="utf-8"?>
<!-- Generator: Adobe Illustrator 16.0.4, SVG Export Plug-In . SVG Version: 6.00 Build 0)  -->
<!DOCTYPE svg PUBLIC "-//W3C//DTD SVG 1.0//EN" "http://www.w3.org/TR/2001/REC-SVG-20010904/DTD/svg10.dtd">
<svg version="1.0" id="Layer_1" xmlns="http://www.w3.org/2000/svg" xmlns:xlink="http://www.w3.org/1999/xlink" x="0px" y="0px"
	 width="286px" height="55px" viewBox="0 0 286 55" enable-background="new 0 0 286 55" xml:space="preserve">
<g id="GRjk3V.tif">
	<g>
		<path fill-rule="evenodd" clip-rule="evenodd" fill="#ED1C24" d="M5.061,22.283c-0.09-5.844,3.917-11.208,9.598-12.818
			c7.513-2.131,15.173,2.573,16.666,10.243c0.417,2.145,0.256,4.283-0.158,6.408c-0.632,3.249-1.959,6.217-3.728,8.993
			c-2.391,3.755-5.371,6.983-8.822,9.785c-0.211,0.172-0.35,0.207-0.578,0.021c-4.215-3.445-7.754-7.456-10.275-12.312
			c-1.333-2.568-2.227-5.282-2.559-8.164C5.123,23.725,5.108,23.002,5.061,22.283z M18.152,11.718
			c-5.692-0.01-10.324,4.613-10.328,10.307c-0.005,5.739,4.61,10.361,10.349,10.366c5.612,0.006,10.297-4.624,10.311-10.188
			C28.498,16.354,23.939,11.727,18.152,11.718z"/>
		<path fill-rule="evenodd" clip-rule="evenodd" fill="#ED1C24" d="M15.532,20.686c-0.443,0.376-0.893,0.744-1.319,1.138
			c-0.047,0.044,0.019,0.24,0.067,0.352c0.284,0.659,0.646,1.293,0.853,1.975c0.278,0.923,0.264,1.879-0.07,2.801
			c-0.443,1.221-1.55,1.478-2.505,0.592c-0.895-0.83-1.164-2.354-0.627-3.573c0.335-0.76,0.861-1.382,1.428-1.977
			c0.083-0.087,0.169-0.255,0.141-0.352c-0.584-1.921-0.586-1.968,0.077-3.743c-0.08-0.053-0.189-0.092-0.247-0.17
			c-0.069-0.093-0.151-0.241-0.12-0.325c0.029-0.078,0.232-0.172,0.303-0.14c0.236,0.109,0.323-0.033,0.434-0.179
			c0.278-0.363,0.563-0.72,0.839-1.084c0.162-0.214,0.361-0.308,0.582-0.126c0.211,0.173,0.134,0.382-0.015,0.572
			c-0.311,0.396-0.619,0.795-0.87,1.117c0.067,0.246,0.114,0.418,0.161,0.591c-0.203,0.021-0.405,0.041-0.686,0.069
			c-0.559,0.729-0.609,2.177-0.033,3.193c0.542-0.391,1.088-0.772,1.616-1.179c0.079-0.061,0.098-0.232,0.099-0.354
			c0.008-1.033,0.003-2.067,0.005-3.102c0.002-0.766,0.36-1.119,1.13-1.119c2.092,0,4.184,0,6.275,0c0.69,0,1.08,0.376,1.08,1.063
			c0.003,3.619,0.003,7.237,0.001,10.855c0,0.61-0.346,0.967-0.96,0.968c-2.188,0.006-4.376,0.005-6.564-0.001
			c-0.638-0.002-0.964-0.348-0.964-0.994c0-2.128,0-4.256,0-6.384c0-0.132,0-0.263,0-0.394
			C15.606,20.747,15.569,20.716,15.532,20.686z M19.792,16.865c-0.721,0-1.443-0.004-2.164,0.002
			c-0.61,0.005-0.992,0.383-0.998,0.986c-0.007,0.71-0.006,1.419-0.002,2.128c0.004,0.627,0.386,1.017,1.006,1.019
			c1.418,0.005,2.837,0.004,4.256,0.001c0.648-0.002,1.033-0.384,1.038-1.026c0.004-0.697,0.004-1.395,0-2.092
			c-0.004-0.631-0.382-1.012-1.008-1.017C21.211,16.861,20.501,16.865,19.792,16.865z M13.768,22.22
			c-0.686,0.696-1.343,1.401-1.585,2.367c-0.24,0.952-0.074,1.849,0.624,2.577c0.732,0.764,1.532,0.574,1.876-0.418
			c0.039-0.113,0.069-0.23,0.092-0.347C15.083,24.865,14.629,23.514,13.768,22.22z"/>
	</g>
</g>
<g>
	<path d="M48.233,32.962v11.845h-2.349V16.302h9.828c2.989,0,5.302,0.764,6.94,2.29c1.638,1.527,2.457,3.537,2.457,6.03
		c0,2.532-0.819,4.556-2.457,6.069c-1.638,1.514-3.952,2.271-6.94,2.271H48.233z M48.233,30.965h7.479
		c2.35,0,4.111-0.597,5.286-1.791s1.762-2.698,1.762-4.513c0-1.827-0.587-3.345-1.762-4.552s-2.937-1.811-5.286-1.811h-7.479V30.965
		z"/>
	<path d="M68.497,33.902c0-3.12,0.854-5.678,2.564-7.675s3.974-2.995,6.793-2.995c2.832,0,5.103,0.998,6.813,2.995
		s2.565,4.555,2.565,7.675v0.646c0,3.133-0.852,5.694-2.555,7.685s-3.964,2.985-6.784,2.985c-2.845,0-5.123-0.995-6.833-2.985
		s-2.564-4.552-2.564-7.685V33.902z M70.846,34.548c0,2.454,0.62,4.517,1.86,6.187c1.24,1.671,2.969,2.506,5.188,2.506
		c2.18,0,3.893-0.835,5.139-2.506c1.246-1.67,1.87-3.732,1.87-6.187v-0.646c0-2.415-0.626-4.464-1.879-6.147
		s-2.976-2.526-5.168-2.526s-3.909,0.843-5.149,2.526c-1.24,1.684-1.86,3.732-1.86,6.147V34.548z"/>
	<path d="M104.813,39.384c0-0.992-0.408-1.856-1.224-2.594c-0.816-0.737-2.288-1.342-4.415-1.812
		c-2.506-0.521-4.369-1.236-5.589-2.144c-1.221-0.907-1.831-2.176-1.831-3.808c0-1.618,0.682-2.989,2.046-4.111
		c1.364-1.123,3.168-1.684,5.413-1.684c2.362,0,4.249,0.597,5.658,1.791s2.082,2.666,2.017,4.415l-0.04,0.117h-2.173
		c0-1.161-0.5-2.173-1.498-3.034c-0.999-0.861-2.32-1.293-3.965-1.293c-1.697,0-2.976,0.372-3.837,1.116s-1.292,1.612-1.292,2.604
		c0,0.966,0.368,1.765,1.106,2.397c0.737,0.634,2.209,1.191,4.415,1.674c2.48,0.549,4.356,1.312,5.629,2.291
		c1.272,0.979,1.909,2.297,1.909,3.955c0,1.762-0.715,3.194-2.144,4.297c-1.429,1.104-3.318,1.654-5.667,1.654
		c-2.571,0-4.591-0.613-6.059-1.84c-1.469-1.228-2.164-2.689-2.085-4.386l0.04-0.117h2.153c0.091,1.526,0.715,2.636,1.87,3.328
		c1.155,0.691,2.516,1.037,4.082,1.037c1.696,0,3.035-0.378,4.013-1.136C104.323,41.348,104.813,40.44,104.813,39.384z"/>
	<path d="M116.207,18.2v5.424h4.659v1.918h-4.659v13.803c0,1.384,0.251,2.365,0.753,2.946s1.171,0.871,2.007,0.871
		c0.287,0,0.564-0.017,0.832-0.049s0.584-0.088,0.95-0.167l0.353,1.743c-0.313,0.156-0.702,0.283-1.165,0.382
		c-0.463,0.098-0.923,0.146-1.38,0.146c-1.488,0-2.646-0.47-3.475-1.409c-0.829-0.94-1.243-2.428-1.243-4.464V25.542h-3.661v-1.918
		h3.661V18.2H116.207z"/>
	<path d="M124.136,33.902c0-3.12,0.854-5.678,2.564-7.675s3.974-2.995,6.793-2.995c2.832,0,5.103,0.998,6.813,2.995
		s2.565,4.555,2.565,7.675v0.646c0,3.133-0.852,5.694-2.555,7.685s-3.964,2.985-6.784,2.985c-2.845,0-5.123-0.995-6.833-2.985
		s-2.564-4.552-2.564-7.685V33.902z M126.485,34.548c0,2.454,0.62,4.517,1.86,6.187c1.24,1.671,2.969,2.506,5.188,2.506
		c2.18,0,3.893-0.835,5.139-2.506c1.246-1.67,1.87-3.732,1.87-6.187v-0.646c0-2.415-0.626-4.464-1.879-6.147
		s-2.976-2.526-5.168-2.526s-3.909,0.843-5.149,2.526c-1.24,1.684-1.86,3.732-1.86,6.147V34.548z"/>
	<path d="M174.137,37.876c0-1.461-0.581-2.669-1.743-3.622c-1.162-0.952-3.132-1.847-5.912-2.682
		c-3.042-0.835-5.354-1.876-6.94-3.123c-1.586-1.246-2.379-2.939-2.379-5.08c0-2.18,0.888-3.971,2.663-5.374s4.04-2.104,6.793-2.104
		c2.897,0,5.228,0.793,6.989,2.379c1.762,1.585,2.617,3.599,2.565,6.039l-0.04,0.118h-2.192c0-1.88-0.682-3.439-2.046-4.68
		c-1.364-1.239-3.123-1.859-5.276-1.859c-2.219,0-3.958,0.525-5.217,1.576c-1.26,1.05-1.889,2.339-1.889,3.866
		c0,1.448,0.571,2.64,1.713,3.573c1.142,0.933,3.155,1.804,6.04,2.613c3.002,0.874,5.292,1.951,6.872,3.23
		c1.579,1.279,2.369,2.976,2.369,5.09c0,2.219-0.923,4.004-2.77,5.354c-1.847,1.351-4.173,2.026-6.979,2.026
		c-2.807,0-5.253-0.715-7.342-2.144c-2.088-1.43-3.1-3.515-3.034-6.255l0.039-0.118h2.173c0,2.206,0.829,3.848,2.486,4.924
		c1.658,1.077,3.55,1.615,5.678,1.615c2.18,0,3.955-0.499,5.325-1.497C173.452,40.744,174.137,39.455,174.137,37.876z"/>
	<path d="M189.76,45.218c-2.741,0-4.966-0.969-6.676-2.907c-1.71-1.938-2.565-4.428-2.565-7.469v-1.077
		c0-3.054,0.865-5.572,2.594-7.557c1.729-1.984,3.873-2.976,6.431-2.976c2.571,0,4.558,0.825,5.961,2.477
		c1.403,1.651,2.104,3.873,2.104,6.666v1.82h-14.742v0.646c0,2.415,0.61,4.418,1.831,6.01c1.22,1.593,2.907,2.389,5.061,2.389
		c1.292,0,2.479-0.212,3.563-0.636s1.984-0.995,2.702-1.714l0.999,1.605c-0.744,0.783-1.72,1.433-2.927,1.948
		C192.889,44.96,191.443,45.218,189.76,45.218z M189.544,25.229c-1.801,0-3.283,0.646-4.444,1.938s-1.84,2.931-2.036,4.914
		l0.059,0.117h12.138v-0.489c0-1.879-0.493-3.429-1.478-4.649C192.797,25.839,191.385,25.229,189.544,25.229z"/>
	<path d="M201.506,34.392c0-3.381,0.714-6.086,2.144-8.115s3.423-3.044,5.981-3.044c1.501,0,2.806,0.322,3.916,0.969
		s2.023,1.563,2.741,2.751l0.333-3.328h1.899v21.3c0,2.702-0.744,4.783-2.231,6.245c-1.488,1.462-3.596,2.193-6.324,2.193
		c-1.018,0-2.104-0.124-3.26-0.372c-1.155-0.248-2.163-0.588-3.025-1.019l0.451-1.977c0.848,0.417,1.752,0.733,2.711,0.949
		c0.959,0.215,1.987,0.323,3.083,0.323c2.088,0,3.648-0.535,4.679-1.605c1.031-1.07,1.547-2.65,1.547-4.738v-2.995
		c-0.718,1.058-1.628,1.87-2.731,2.438c-1.103,0.567-2.379,0.852-3.828,0.852c-2.532,0-4.513-0.946-5.942-2.839
		s-2.144-4.418-2.144-7.576V34.392z M203.855,34.803c0,2.558,0.516,4.594,1.547,6.108c1.031,1.514,2.578,2.271,4.64,2.271
		c1.488,0,2.738-0.336,3.75-1.008c1.011-0.673,1.797-1.596,2.359-2.771V29.301c-0.535-1.188-1.295-2.156-2.281-2.907
		c-0.986-0.75-2.249-1.125-3.788-1.125c-2.062,0-3.616,0.849-4.66,2.545c-1.044,1.696-1.566,3.89-1.566,6.578V34.803z"/>
	<path d="M238.527,41.361c-0.679,1.24-1.589,2.192-2.731,2.858c-1.142,0.665-2.496,0.998-4.062,0.998
		c-2.232,0-3.981-0.757-5.247-2.271c-1.266-1.514-1.899-3.862-1.899-7.048V23.624h2.349v12.313c0,2.585,0.44,4.438,1.321,5.561
		c0.881,1.123,2.131,1.684,3.75,1.684c1.762,0,3.168-0.395,4.219-1.185c1.05-0.789,1.792-1.869,2.222-3.24V23.624h2.349v21.183
		h-2.075L238.527,41.361z"/>
	<path d="M256.656,25.64l-1.664-0.117c-1.475,0-2.686,0.415-3.632,1.243c-0.946,0.829-1.622,1.968-2.026,3.417v14.624h-2.349V23.624
		h2.056l0.293,3.523v0.235c0.614-1.306,1.436-2.323,2.467-3.055c1.031-0.73,2.258-1.096,3.681-1.096
		c0.287,0,0.561,0.022,0.822,0.068s0.477,0.095,0.646,0.146L256.656,25.64z"/>
	<path d="M258.966,33.902c0-3.12,0.854-5.678,2.564-7.675s3.974-2.995,6.793-2.995c2.832,0,5.103,0.998,6.813,2.995
		s2.565,4.555,2.565,7.675v0.646c0,3.133-0.852,5.694-2.555,7.685s-3.964,2.985-6.784,2.985c-2.845,0-5.123-0.995-6.833-2.985
		s-2.564-4.552-2.564-7.685V33.902z M261.315,34.548c0,2.454,0.62,4.517,1.86,6.187c1.24,1.671,2.969,2.506,5.188,2.506
		c2.18,0,3.893-0.835,5.139-2.506c1.246-1.67,1.87-3.732,1.87-6.187v-0.646c0-2.415-0.626-4.464-1.879-6.147
		s-2.976-2.526-5.168-2.526s-3.909,0.843-5.149,2.526c-1.24,1.684-1.86,3.732-1.86,6.147V34.548z"/>
</g>
</svg>
